Coordinates
version=1
nRows=13
nColumns=36
inDegrees=yes

Units are S.I. units (second, meters, Newtons, ...)
If the header above contains a line with 'inDegrees', this indicates whether rotational values are in degrees (yes) or radians (no).

endheader
time	pelvis_tilt	pelvis_list	pelvis_rotation	pelvis_tx	pelvis_ty	pelvis_tz	hip_flexion_r	hip_adduction_r	hip_rotation_r	knee_angle_r	knee_angle_r_beta	ankle_angle_r	subtalar_angle_r	mtp_angle_r	hip_flexion_l	hip_adduction_l	hip_rotation_l	knee_angle_l	knee_angle_l_beta	ankle_angle_l	subtalar_angle_l	mtp_angle_l	lumbar_extension	lumbar_bending	lumbar_rotation	arm_flex_r	arm_add_r	arm_rot_r	elbow_flex_r	pro_sup_r	arm_flex_l	arm_add_l	arm_rot_l	elbow_flex_l	pro_sup_l
      2.28333330	     -2.34197259	     -2.80943981	      4.20474226	      0.67285390	      0.97321367	     -0.02657533	     -5.05041607	      1.94466924	      3.26382651	      1.59132266	      0.02777382	      7.62485732	     -2.54621960	     -7.49999987	     -6.33709398	     -4.05265842	      1.27316314	      1.58153941	      0.02760307	     10.05203354	      0.32192854	     -7.49999987	     -1.98623289	      4.02897602	     -1.03285317	     -0.51933309	     -3.28376816	    -13.27619140	     18.90373825	    104.30998578	     -0.83824563	     -1.50399211	    -16.37443409	     18.23878287	     88.94222890
      2.30000000	     -2.11409868	     -2.81420392	      4.15422606	      0.67839242	      0.97292509	     -0.02730334	     -5.37843926	      1.95026835	      3.35864289	      1.61527629	      0.02819189	      7.78302662	     -2.56306949	     -7.49999987	     -6.71891003	     -4.07220156	      1.27421720	      1.56056790	      0.02723705	     10.20321143	      0.28766100	     -7.49999987	     -1.61493549	      4.07287976	     -1.02135601	     -0.82605594	     -3.33854871	    -13.30327167	     18.81125243	    104.29653013	     -1.23596462	     -1.42832482	    -16.39544430	     18.10654783	     88.94324099
      2.31666670	     -1.92756270	     -2.88100285	      3.97555184	      0.67812180	      0.97390347	     -0.02731722	     -5.71782405	      2.00430415	      3.54479645	      1.53195407	      0.02673764	      7.93048963	     -2.47249933	     -7.49999987	     -7.09546680	     -4.14193499	      1.04894680	      1.46031979	      0.02548739	     10.41290694	      0.50709402	     -7.49999987	     -1.15296718	      4.17817346	     -0.86394261	     -0.99663769	     -3.47080760	    -12.62059858	     18.34068014	    101.98810574	     -1.54217122	     -1.28782012	    -16.13829147	     17.57347125	     86.57673150
      2.33333330	     -1.79315249	     -2.87393485	      3.87353513	      0.67554569	      0.97631470	     -0.02538334	     -5.92351398	      2.01056878	      3.62544496	      1.44873807	      0.02528525	      8.05118004	     -2.38327260	     -7.49999987	     -7.33329712	     -4.15414623	      0.98489331	      1.41331071	      0.02466693	     10.38840564	      0.46022857	     -7.49999987	     -0.84464832	      4.17228083	     -0.82274626	     -1.14000101	     -3.45097490	    -12.68731639	     18.28886656	    102.03472261	     -1.84388150	     -1.27327230	    -16.19686083	     17.37772657	     86.60958467
      2.35000000	     -1.68380736	     -2.87467054	      3.77650724	      0.67578649	      0.97489440	     -0.02479786	     -6.07269794	      2.03248992	      3.65063884	      1.38543991	      0.02418049	      8.21633300	     -2.15485408	     -7.49999987	     -7.51848148	     -4.18550308	      0.85004480	      1.37938781	      0.02407486	     10.41403727	      0.49607928	     -7.49999987	     -0.53611070	      4.13152018	     -0.64590681	     -1.28909642	     -3.28910138	    -14.25576087	     18.22115490	    104.26755163	     -1.89062287	     -1.30055123	    -16.08625255	     16.81546212	     85.92108252
      2.36666670	     -1.59136650	     -2.87222587	      3.75036972	      0.67813023	      0.97676020	     -0.02758369	     -6.19497896	      2.02447962	      3.66156679	      1.40997787	      0.02460876	      8.21094771	     -2.15310004	     -7.49999987	     -7.65516071	     -4.18932982	      0.82355134	      1.42309396	      0.02483768	     10.41150535	      0.47008122	     -7.49999987	     -0.38736647	      4.11270034	     -0.60464505	     -1.36672016	     -3.30410858	    -14.26187265	     18.19131706	    104.26033776	     -2.13594194	     -1.22517906	    -16.09370485	     16.70565827	     85.92848169
      2.38333330	     -1.53250232	     -2.94153911	      3.61626897	      0.67574281	      0.97243802	     -0.02502287	     -6.27268973	      2.11167223	      3.82286416	      1.36751779	      0.02386769	      8.26323036	     -2.16645873	     -7.49999987	     -7.81231267	     -4.25458602	      0.66853924	      1.34553235	      0.02348397	     10.52063397	      0.32231206	     -7.49999987	     -0.04178713	      4.17664133	     -0.52528581	     -1.36490012	     -3.37232855	    -13.59342269	     17.75751334	    102.45555191	     -2.19921533	     -1.25565785	    -16.04747996	     16.00201902	     85.68759318
      2.40000000	     -1.54836120	     -2.95239847	      3.56890444	      0.67551720	      0.97959351	     -0.02538222	     -6.20459258	      2.13006537	      3.75522256	      1.36815917	      0.02387888	      8.27704322	     -2.17989138	     -7.49999987	     -7.75372348	     -4.27679931	      0.62452337	      1.35596439	      0.02366604	     10.48821467	      0.32200348	     -7.49999987	     -0.04035600	      4.11055395	     -0.48293408	     -1.30519066	     -3.34811714	    -13.59175079	     17.79118101	    102.43528166	     -2.25910527	     -1.22719613	    -16.04692972	     15.98726363	     85.68220557
      2.41666670	     -1.57180412	     -2.93887569	      3.45924327	      0.67577902	      0.98120225	     -0.02472925	     -6.21699962	      2.10548811	      3.88436304	      1.21462921	      0.02119928	      8.10031321	     -2.07810956	     -7.49999987	     -7.79689692	     -4.24712683	      0.52192260	      1.20884121	      0.02109826	     10.14052625	      0.28721407	     -7.49999987	      0.30057467	      4.02939046	     -0.47448748	     -1.13748260	     -3.51399306	    -11.23392336	     17.02270326	    100.49449251	     -2.27674402	     -1.50286644	    -13.16120579	     15.20718986	     81.46311505
      2.43333330	     -1.37107871	     -2.92299790	      3.42021482	      0.67863867	      0.98073065	     -0.02306738	     -6.50309644	      2.12017644	      3.69365010	      1.07224945	      0.01871428	      8.13440812	     -1.66059029	     -7.49999987	     -8.04537026	     -4.27180049	      0.22164052	      1.14562213	      0.01999488	     10.07178919	      0.64298260	     -7.49999987	      0.12729921	      3.92442530	     -0.28226953	     -1.21516886	     -3.17981236	    -14.08812979	     17.27029668	    103.85608619	     -2.18770620	     -1.47366592	    -14.59291837	     14.97641681	     84.74200264
      2.45000000	     -1.32238492	     -2.94936262	      3.35589492	      0.67847704	      0.98025162	     -0.02271073	     -6.60466034	      2.17936394	      3.64929113	      0.97272707	      0.01697729	      8.06728422	     -1.47888502	     -7.49999987	     -8.12668922	     -4.32302981	      0.08749856	      1.11280427	      0.01942210	      9.98709945	      0.69996235	     -7.49999987	      0.18369926	      3.84938520	     -0.20790375	     -1.16307282	     -3.14177290	    -13.85950421	     17.03157023	    104.07161383	     -2.21053015	     -1.63841295	    -13.72205511	     14.58108068	     83.67147428
      2.46666670	     -1.22494419	     -2.94230300	      3.32013153	      0.67591402	      0.98182924	     -0.02045170	     -6.69620151	      2.23346864	      3.64271757	      0.88125837	      0.01538086	      7.98628487	     -1.38701003	     -7.49999987	     -8.19503675	     -4.37026656	     -0.04250349	      1.06801908	      0.01864045	      9.84737752	      0.75741153	     -7.49999987	      0.03864405	      3.68444151	     -0.14532166	     -1.03272266	     -3.03655146	    -13.37347927	     16.75940727	    104.11429879	     -2.12167991	     -1.83871967	    -13.10921736	     14.17935543	     83.85262334
      2.48333330	     -1.14274018	     -2.89096718	      3.26539004	      0.67566481	      0.98058176	     -0.02034210	     -6.78108382	      2.24006209	      3.61832565	      0.80771399	      0.01409727	      7.98117034	     -1.27595898	     -7.49999987	     -8.26712162	     -4.37706863	     -0.13427205	      1.00659674	      0.01756843	      9.70033106	      0.78308177	     -7.49999987	     -0.12834606	      3.46034734	     -0.07916942	     -0.82440980	     -2.98472056	    -12.32363873	     16.33009553	    103.76970769	     -2.00354036	     -2.13510592	    -11.42562732	     13.73451065	     82.58828312
